<svg xmlns="http://www.w3.org/2000/svg" xmlns:xlink="http://www.w3.org/1999/xlink" width="100" zoomAndPan="magnify" viewBox="0 0 75 74.999997" height="100" preserveAspectRatio="xMidYMid meet" version="1.0"><defs><clipPath id="f280181f83"><path d="M 39.117188 31.738281 L 43.617188 31.738281 L 43.617188 36.238281 L 39.117188 36.238281 Z M 39.117188 31.738281 " clip-rule="nonzero"/></clipPath><clipPath id="49819a6a4a"><path d="M 1.015625 8 L 64 8 L 64 75 L 1.015625 75 Z M 1.015625 8 " clip-rule="nonzero"/></clipPath><clipPath id="3445e4228f"><path d="M 10 0 L 73.765625 0 L 73.765625 68 L 10 68 Z M 10 0 " clip-rule="nonzero"/></clipPath></defs><g clip-path="url(#f280181f83)"><path fill="#ffffff" d="M 41.472656 31.738281 L 42.304688 33.261719 L 43.828125 34.09375 L 42.304688 34.925781 L 41.472656 36.449219 L 40.636719 34.925781 L 39.117188 34.09375 L 40.636719 33.261719 Z M 41.472656 31.738281 " fill-opacity="1" fill-rule="nonzero"/></g><g clip-path="url(#49819a6a4a)"><path fill="#ffffff" d="M 53.679688 68.226562 C 53.679688 58.265625 53.679688 48.457031 53.679688 38.648438 C 53.550781 38.601562 53.425781 38.550781 53.300781 38.5 C 48.085938 45.050781 42.867188 51.597656 37.460938 58.382812 C 35.539062 55.988281 33.695312 53.691406 31.6875 51.195312 C 21.851562 63.558594 12.089844 75.816406 2.25 88.183594 C 1.800781 87.824219 1.441406 87.535156 1.015625 87.195312 C 21.960938 60.859375 42.832031 34.621094 63.964844 8.050781 C 63.964844 28.359375 63.964844 48.242188 63.964844 68.226562 C 60.585938 68.226562 57.296875 68.226562 53.679688 68.226562 Z M 53.679688 68.226562 " fill-opacity="1" fill-rule="nonzero"/></g><g clip-path="url(#3445e4228f)"><path fill="#ffffff" d="M 10.964844 8.324219 C 18.609375 17.929688 26.015625 27.238281 33.585938 36.75 C 34.160156 36.058594 34.664062 35.472656 35.148438 34.867188 C 47.289062 19.59375 59.421875 4.316406 71.585938 -10.945312 C 72.121094 -11.613281 72.628906 -13.164062 73.96875 -11.398438 C 58.707031 7.789062 43.4375 26.988281 27.988281 46.410156 C 25.835938 43.746094 23.785156 41.203125 21.496094 38.367188 C 21.410156 39.113281 21.316406 39.539062 21.316406 39.96875 C 21.304688 44.398438 21.359375 48.824219 21.269531 53.25 C 21.25 54.160156 20.90625 55.21875 20.355469 55.9375 C 17.371094 59.839844 14.269531 63.65625 10.964844 67.808594 C 10.964844 47.875 10.964844 28.316406 10.964844 8.324219 Z M 10.964844 8.324219 " fill-opacity="1" fill-rule="nonzero"/></g></svg>